PathFileType	4	(X/Y/Z)	RBDS012\RBDS012runT35.trc
DataRate	CameraRate	NumFrames	NumMarkers	Units	OrigDataRate	OrigDataStartFrame	OrigNumFrames
150.000000	150.000000	4	33	mm	150.000000	0	4500
Frame#	Time	L.ASIS			L.Heel.Bottom			L.Heel.Lateral			L.Heel.Top			L.Iliac.Crest			L.MT1			L.MT5			L.PSIS			L.Shank.Bottom.Lateral			L.Shank.Bottom.Medial			L.Shank.Top.Lateral			L.Shank.Top.Medial			L.Thigh.Bottom.Lateral			L.Thigh.Bottom.Medial			L.Thigh.Top.Lateral			L.Thigh.Top.Medial			R.ASIS			R.ASY			R.Heel.Bottom			R.Heel.Lateral			R.Heel.Top			R.Iliac.Crest			R.MT1			R.MT5			R.PSIS			R.Shank.Bottom.Lateral			R.Shank.Bottom.Medial			R.Shank.Top.Lateral			R.Shank.Top.Medial			R.Thigh.Bottom.Lateral			R.Thigh.Bottom.Medial			R.Thigh.Top.Lateral			R.Thigh.Top.Medial			
		X1	Y1	Z1	X2	Y2	Z2	X3	Y3	Z3	X4	Y4	Z4	X5	Y5	Z5	X6	Y6	Z6	X7	Y7	Z7	X8	Y8	Z8	X9	Y9	Z9	X10	Y10	Z10	X11	Y11	Z11	X12	Y12	Z12	X13	Y13	Z13	X14	Y14	Z14	X15	Y15	Z15	X16	Y16	Z16	X17	Y17	Z17	X18	Y18	Z18	X19	Y19	Z19	X20	Y20	Z20	X21	Y21	Z21	X22	Y22	Z22	X23	Y23	Z23	X24	Y24	Z24	X25	Y25	Z25	X26	Y26	Z26	X27	Y27	Z27	X28	Y28	Z28	X29	Y29	Z29	X30	Y30	Z30	X31	Y31	Z31	X32	Y32	Z32	X33	Y33	Z33	

1	0	2206.994782936263	1013.479603904619	903.9391898581534	2338.440095258251	21.3485941718551	991.0167073519129	2358.00549185532	39.94638853731132	940.6391512350672	2329.9721804417	70.88723277443125	986.7355763592221	2163.792961761328	1092.115034241897	864.2812723432481	2542.981319639914	117.3972281753603	1004.575257645072	2509.323448546827	94.84729491075139	894.1640109927889	2053.699274666278	1073.526081645049	988.8928518746483	2359.938629089418	186.1748081626465	919.7891492732394	2321.249942195886	180.5430408379425	959.02967015402	2332.169770948482	259.9698093932565	903.9307160857564	2295.364014314676	255.773591446649	943.3600665410759	2287.388830544521	647.8127681679442	867.6146115101196	2229.093823616536	616.2815132339871	897.865223816558	2224.669388581929	736.5588151748013	847.9588006946683	2171.109986767482	709.0397924913547	880.6297647994256	2231.125925743797	1015.286701167435	1161.171136572941	1578.149418708251	312.0785074898187	1099.261206239957	1501.302292315577	496.9869323023277	1070.032726042332	1515.322229539226	480.3348884948753	1110.265046888677	1552.143147834405	492.0083507346923	1073.810361487304	2206.270798165426	1092.989786466357	1181.809731678567	1544.405729287957	275.4094747166308	1045.904934350521	1521.931824792665	309.0857790587928	1157.763453754181	2070.886681197659	1079.762403705241	1094.749279649565	1650.653868512042	452.480912342251	1140.297309970051	1645.503931371817	492.2984877592097	1108.370968950265	1728.289804821054	479.8289068977471	1160.014635854657	1718.393511810431	521.4907906843066	1128.305468507041	2026.330818565489	622.3558202033093	1192.291766640242	1972.927732063089	641.5190606113728	1144.206240511102	2047.1792537026	728.7824005409757	1206.440862980505	1996.529406791419	747.427637869008	1162.343000135217	
2	0.006666666666666667	2206.120931600646	1008.154533756226	903.0110759020154	2318.166198289226	22.5691902504122	991.8271487339812	2339.39379413935	40.34492641920561	941.991910450065	2313.684668942435	72.02167686378228	988.7708223121317	2161.686622946597	1085.941436852469	863.6686582859209	2527.234827105832	102.7506823299208	1008.206214653827	2493.629975468893	84.0765302121499	897.32578474169	2051.807006675086	1066.17426771675	989.1598660755233	2349.950709326648	181.054009014299	921.3289270314168	2310.187538199145	176.8379257420139	959.5209337207372	2325.174120577924	255.7267018938326	904.9391705976298	2287.363197411922	252.9246073704244	943.3872766432549	2287.766719125869	643.9570637035908	867.5799929525358	2229.589682491745	612.3841442142884	897.9180795042339	2224.926581544312	732.691815521125	848.1525444035011	2171.516558242261	705.1128368887354	880.8531594116613	2230.840622820074	1011.046090565076	1161.302828696087	1581.833489831639	326.7388302494948	1097.079941864875	1514.692954706156	514.9900841267901	1073.067578814574	1527.982160891781	496.7841776703754	1112.913593151866	1564.728595177695	507.0445920363121	1076.706901015059	2205.186700830192	1088.404528054831	1182.566736971971	1545.100736394276	293.1898887368778	1043.613967548075	1525.329875071417	325.2540942984726	1156.696740679515	2069.515517257621	1072.496868565541	1094.851151843368	1659.625695922487	461.9046245695796	1140.701576539668	1656.650422380165	502.0464676112572	1109.224895505241	1738.438534171044	484.6181396685448	1160.32167352805	1730.702324026885	526.9226548733418	1129.110789723578	2034.351860407045	612.7270788808844	1192.522127985674	1981.767746046969	630.5249955242978	1143.075283597681	2052.125461250594	719.636288904814	1206.970352633036	2001.853677998334	737.0811815709739	1162.109738574936	
3	0.01333333333333333	2205.146447343698	1002.834380210474	902.0281831187964	2297.740017717667	23.80017687865105	992.6000559694464	2320.544570141249	40.80107279105843	943.2812586815467	2297.073221236537	73.16866648834241	990.7216732954091	2159.543769931689	1079.642020014414	863.0612376637602	2511.12101456954	88.78075912763428	1011.635067171498	2477.558310374893	73.86136624455295	900.2736758777409	2049.87566625891	1058.878320027621	989.4986144168679	2339.659091246539	176.2147161608209	922.8304317381933	2298.855686762664	173.4764153899147	959.9730100105717	2317.950665662806	251.7237956427569	905.906797730212	2279.174929107299	250.3736308738454	943.3789382342287	2288.035280542354	640.1430906155423	867.4816858245355	2230.000275650398	608.5368648282181	897.9611992604746	2225.055749938922	728.8486274938377	848.2715959643143	2171.814527175097	701.2181017412461	881.0489895185343	2230.470196430064	1006.624884767676	1161.399040628793	1586.066632959132	340.9809246847281	1095.00775405084	1528.288047559454	532.3978642359002	1076.050081212177	1540.866788157155	512.689445038639	1115.515713181555	1577.543384829496	521.6089220707947	1079.531748294775	2204.089908550767	1083.583196164957	1183.295924017705	1546.498362157982	310.457442725924	1041.435761278796	1529.331978828244	340.9330739770144	1155.693767669007	2068.03316593291	1065.167164292723	1095.026767469143	1668.960628452296	471.0211861296834	1141.142121259352	1668.120907526597	511.4619334211966	1110.097643294996	1748.866387965592	489.1937671322977	1160.691507202278	1743.272203689191	532.1040902869479	1129.945692673655	2042.460593597043	603.225032641147	1192.752488145338	1990.655249262438	619.6187562325191	1142.013732145791	2057.12189509004	710.5897667421235	1207.451033134857	2007.195006554977	726.7892759039901	1161.861283115856	
4	0.02	2203.981477809666	997.5281084966017	900.9425751264359	2277.034325281065	25.04217083242202	993.300670414866	2301.254774903539	41.35726017292239	944.4497625152406	2279.856599615104	74.33092821874392	992.5111789328021	2157.326641747617	1073.131520590744	862.4616067597059	2494.32040988066	76.08842074704302	1014.683740560232	2460.77897493181	64.69066332122411	902.8213585626149	2047.869822728773	1051.692792298309	989.9625080571733	2328.794491929316	171.8940636321982	924.2553529636083	2287.018887743302	170.7483715057073	960.3492955752537	2310.293668161753	248.1590575937954	906.7940044011822	2270.633320425962	248.3680512419689	943.3030132468109	2288.108055643845	636.4001167829572	867.2643624758604	2230.254023181101	604.772671877643	897.974678127964	2224.955523736327	725.0459514462952	848.2502950460917	2171.913332715443	697.3764013977399	881.1825991735466	2229.932009309161	1001.866011366634	1161.420544704233	1591.334789778629	354.4348438925454	1093.144957962757	1542.277566450907	548.7030202885676	1078.939486852524	1554.185497768402	527.5872924903497	1118.034660814534	1590.801490971203	535.2993586283665	1082.224728593195	2202.942196080249	1078.32263119203	1183.97830337563	1549.211586922749	326.7616025558963	1039.477403763012	1534.470790215306	355.6918311694041	1154.814619308187	2066.33806864805	1057.720064245907	1095.32919334736	1678.992896315103	479.5585985393152	1141.648504403343	1680.218601993635	520.2551600078559	1111.007072265437	1759.83690298426	493.3594039378742	1161.176748401152	1756.352923287021	536.8067646322631	1130.83887148495	2050.754430212543	593.9482834545128	1192.987891432564	1999.64355072661	608.8604529695775	1141.095509497905	2062.228016923245	701.7195634678242	1207.846415612604	2012.579069667612	716.5855718167672	1161.596492928511	
